<svg width="201" height="34" viewBox="0 0 201 34" fill="none" xmlns="http://www.w3.org/2000/svg">
<path fill-rule="evenodd" clip-rule="evenodd" d="M159.532 26.6586C153.238 31.4103 144.121 33.9388 136.265 33.9388C125.258 33.9388 115.343 29.7728 107.845 22.8391C107.257 22.2947 107.78 21.5522 108.489 21.9729C116.584 26.7947 126.591 29.6985 136.929 29.6985C143.904 29.6985 151.567 28.2178 158.621 25.1531C159.685 24.6911 160.575 25.8708 159.536 26.6586H159.532Z" fill="#232F3E"/>
<path fill-rule="evenodd" clip-rule="evenodd" d="M162.15 23.5981C161.345 22.5421 156.832 23.099 154.802 23.3465C154.189 23.4207 154.093 22.8721 154.645 22.4761C158.246 19.8858 164.149 20.6324 164.834 21.5027C165.523 22.3772 164.652 28.4322 161.276 31.3237C160.756 31.7691 160.265 31.5299 160.495 30.9442C161.256 29.0015 162.952 24.654 162.146 23.5981H162.15Z" fill="#232F3E"/>
<path fill-rule="evenodd" clip-rule="evenodd" d="M154.941 4.1851V1.66902C154.941 1.28542 155.223 1.02969 155.565 1.03382H166.58C166.931 1.03382 167.217 1.29367 167.217 1.66902V3.82213C167.217 4.1851 166.915 4.65532 166.387 5.40602L160.682 13.7462C162.801 13.6967 165.041 14.0226 166.967 15.128C167.402 15.3755 167.519 15.7467 167.551 16.1097V18.7949C167.551 19.1661 167.156 19.5909 166.741 19.3682C163.349 17.5492 158.853 17.3512 155.102 19.3888C154.719 19.5992 154.316 19.1743 154.316 18.8031V16.2499C154.316 15.8416 154.324 15.1445 154.727 14.5217L161.339 4.81206H155.581C155.231 4.81206 154.949 4.55633 154.945 4.17685L154.941 4.1851Z" fill="#232F3E"/>
<path fill-rule="evenodd" clip-rule="evenodd" d="M176.729 4.30059C174.259 4.30059 174.102 7.74474 174.102 9.89372C174.102 12.0427 174.07 16.6376 176.701 16.6376C179.332 16.6376 179.42 12.9336 179.42 10.6733C179.42 9.19251 179.356 7.41063 178.921 6.0041C178.546 4.77906 177.793 4.30059 176.729 4.30059ZM176.697 0.703838C181.672 0.703838 184.36 5.07604 184.36 10.6362C184.36 16.1963 181.39 20.2715 176.697 20.2715C172.003 20.2715 169.155 15.8993 169.155 10.4506C169.155 5.0018 171.85 0.703838 176.701 0.703838H176.697Z" fill="#232F3E"/>
<path fill-rule="evenodd" clip-rule="evenodd" d="M149.542 19.8549C149.32 20.057 148.917 20.0653 148.748 19.9333C147.604 19.0258 146.826 17.6482 146.826 17.6482C144.985 19.5662 143.684 20.1436 141.303 20.1436C138.483 20.1436 136.287 18.3618 136.287 14.7939C136.287 12.0097 137.761 10.1164 139.86 9.18426C141.678 8.36757 144.22 8.21908 146.162 7.99634C146.162 7.99634 146.323 5.84736 145.755 5.06367C145.316 4.45733 144.562 4.17273 143.873 4.17273C142.628 4.1686 141.428 4.86156 141.19 6.18972C141.122 6.56919 140.848 6.89092 140.558 6.85792L137.346 6.50319C137.101 6.47432 136.766 6.21446 136.847 5.78549C137.592 1.75152 141.15 0.5306 144.341 0.5306C145.972 0.5306 148.104 0.97607 149.389 2.23823C151.021 3.79738 150.863 5.87624 150.863 8.14483V13.4905C150.863 15.0991 151.516 15.8044 152.129 16.6706C152.342 16.9841 152.39 17.3553 152.116 17.5822C151.432 18.1679 149.538 19.8549 149.538 19.8549H149.542ZM146.162 11.49C146.162 12.8264 146.194 13.9401 145.537 15.128C145.005 16.0932 144.159 16.6871 143.217 16.6871C141.931 16.6871 141.178 15.6848 141.178 14.1999C141.178 11.2796 143.74 10.7475 146.162 10.7475V11.49Z" fill="#232F3E"/>
<path fill-rule="evenodd" clip-rule="evenodd" d="M105.607 19.8528C105.385 20.0549 104.978 20.0632 104.817 19.9312C103.673 19.0237 102.895 17.6461 102.895 17.6461C101.054 19.5641 99.7527 20.1415 97.3717 20.1415C94.5514 20.1415 92.3557 18.3597 92.3557 14.7918C92.3557 12.0076 93.8303 10.1143 95.9293 9.18216C97.7464 8.36547 100.289 8.21698 102.231 7.99424C102.231 7.99424 102.392 5.84526 101.824 5.06157C101.38 4.45523 100.631 4.17063 99.9421 4.17063C98.6972 4.1665 97.4966 4.85945 97.2589 6.18761C97.1904 6.56709 96.9164 6.88882 96.6263 6.85582L93.4153 6.50109C93.1695 6.47222 92.8351 6.21236 92.9157 5.78339C93.661 1.74941 97.2186 0.532621 100.409 0.532621C102.041 0.532621 104.172 0.978091 105.458 2.24026C107.089 3.7994 106.932 5.87826 106.932 8.14686V13.4925C106.932 15.1011 107.585 15.8065 108.197 16.6727C108.411 16.9861 108.459 17.3574 108.185 17.5842C107.5 18.1699 105.607 19.8569 105.607 19.8569V19.8528ZM102.226 11.4879C102.226 12.8243 102.259 13.938 101.598 15.1259C101.066 16.0911 100.22 16.685 99.2773 16.685C97.9921 16.685 97.2387 15.6827 97.2387 14.1978C97.2387 11.2775 99.8011 10.7454 102.222 10.7454V11.4879H102.226Z" fill="#232F3E"/>
<path fill-rule="evenodd" clip-rule="evenodd" d="M115.405 9.93084C115.405 7.89323 115.312 5.07604 117.722 5.07604C120.131 5.07604 119.784 7.96747 119.784 9.93084V19.2651C119.784 19.6033 120.054 19.8755 120.389 19.8962H123.737C124.095 19.8962 124.381 19.6157 124.381 19.261V9.93084C124.381 8.92853 124.349 7.44776 124.696 6.55682C125.038 5.66588 125.884 5.11317 126.698 5.11317C127.669 5.11317 128.418 5.44727 128.668 6.63519C128.825 7.34051 128.761 9.19251 128.761 9.93084V19.2651C128.761 19.6033 129.027 19.8755 129.361 19.8962H132.709C133.068 19.8962 133.354 19.6157 133.354 19.261V8.15308C133.354 6.26396 133.575 4.11498 132.512 2.63008C131.573 1.2978 130.042 0.703838 128.632 0.703838C126.662 0.703838 124.817 1.74327 124.003 3.96649C123.064 1.74327 121.751 0.703838 119.656 0.703838C117.56 0.703838 116.058 1.74327 115.244 3.96649H115.179V1.71852C115.179 1.36379 114.897 1.07919 114.555 1.07919H111.429C111.082 1.07919 110.804 1.36792 110.804 1.71852V19.261C110.804 19.6157 111.086 19.9003 111.429 19.9003H114.777C115.123 19.9003 115.401 19.6116 115.401 19.261V9.93084H115.405Z" fill="#232F3E"/>
<path fill-rule="evenodd" clip-rule="evenodd" d="M191.471 19.261C191.471 19.6157 191.189 19.9003 190.846 19.9003H187.498C187.152 19.9003 186.874 19.6116 186.874 19.261V1.71852C186.874 1.36379 187.156 1.07919 187.498 1.07919H190.592C190.955 1.07919 191.217 1.37617 191.217 1.57828V4.26347H191.281C192.22 1.85464 193.534 0.707963 195.85 0.707963C197.353 0.707963 198.823 1.2648 199.762 2.7827C200.636 4.18923 200.636 6.56094 200.636 8.26858V19.3517C200.6 19.6652 200.326 19.9044 199.996 19.9044H196.636C196.326 19.8838 196.076 19.6487 196.04 19.3517V8.7058C196.044 5.14616 194.714 5.04304 193.944 5.04304C193.05 5.04304 192.329 5.75662 192.015 6.42483C191.547 7.50138 191.471 8.59855 191.471 9.78647V19.261Z" fill="#232F3E"/>
<path d="M3.07938 12.8305V20.0195H0.636475V1.49917H5.91211C6.88234 1.49917 7.7313 1.7397 8.45897 2.22075C9.20397 2.70179 9.76705 3.36992 10.1482 4.22511C10.5467 5.08031 10.7459 6.06022 10.7459 7.16485C10.7459 8.87525 10.2955 10.2471 9.39455 11.2805C8.51095 12.3138 7.35013 12.8305 5.91211 12.8305H3.07938ZM3.07938 10.7727H5.65223C6.46653 10.7727 7.09891 10.452 7.54938 9.81062C8.01717 9.16922 8.25106 8.2873 8.25106 7.16485C8.25106 6.02459 8.01717 5.14267 7.54938 4.51909C7.09891 3.87769 6.46653 3.55699 5.65223 3.55699H3.07938V10.7727Z" fill="#232F3E"/>
<path d="M19.7391 20.0195L19.5572 18.8169C19.1068 19.298 18.5956 19.6721 18.0239 19.9394C17.4522 20.1888 16.8544 20.3135 16.2307 20.3135C15.2085 20.3135 14.4029 19.9661 13.8138 19.2712C13.242 18.5586 12.9562 17.5876 12.9562 16.3582C12.9562 15.0576 13.3113 14.0332 14.0217 13.2849C14.732 12.5187 15.7196 12.1357 16.9844 12.1357C17.764 12.1357 18.5783 12.2782 19.4273 12.5633V10.6925C19.4273 9.74826 19.2713 9.08905 18.9595 8.7149C18.665 8.34075 18.1365 8.15367 17.3742 8.15367C16.2134 8.15367 14.9746 8.42983 13.6579 8.98214V7.16485C14.195 6.84415 14.8273 6.59472 15.555 6.41656C16.2827 6.22057 17.0363 6.12258 17.816 6.12258C19.1847 6.12258 20.1809 6.4611 20.8047 7.13813C21.4284 7.81516 21.7402 8.88415 21.7402 10.3451V20.0195H19.7391ZM16.8804 18.3893C17.712 18.3893 18.561 18.0152 19.4273 17.2669V14.1668C18.6649 13.9708 18.0066 13.8728 17.4522 13.8728C16.7418 13.8728 16.2134 14.0688 15.8669 14.4607C15.5204 14.8527 15.3471 15.4496 15.3471 16.2513C15.3471 16.9462 15.477 17.4807 15.7369 17.8548C15.9968 18.2111 16.378 18.3893 16.8804 18.3893Z" fill="#232F3E"/>
<path d="M27.6217 20.1799L23.3856 6.47H25.9845L28.7392 17.4005L31.39 6.47H33.8849L29.181 22.4248C28.8172 23.6541 28.3754 24.5271 27.8556 25.0438C27.3532 25.5783 26.6861 25.8456 25.8545 25.8456C25.2308 25.8456 24.6417 25.7119 24.0873 25.4447V23.6274C24.5031 23.7343 24.8929 23.7877 25.2568 23.7877C25.8459 23.7877 26.2877 23.6274 26.5822 23.3067C26.8941 22.986 27.1366 22.4159 27.3099 21.5963L27.6217 20.1799Z" fill="#232F3E"/>
<path d="M49.6834 20.0195L47.6563 9.43647L45.5772 20.0195H43.1603L39.7818 6.47H42.3547L44.4338 17.2669L46.5648 6.47H48.9038L50.9828 17.3738L53.0879 6.47H55.5828L52.1003 20.0195H49.6834Z" fill="#232F3E"/>
<path d="M57.6092 20.0195V6.47H60.0521V20.0195H57.6092ZM58.8307 3.95786C58.3802 3.95786 58.0164 3.82424 57.7392 3.55699C57.4793 3.27192 57.3494 2.88887 57.3494 2.40782C57.3494 1.92677 57.4793 1.55262 57.7392 1.28537C58.0164 1.00031 58.3802 0.857776 58.8307 0.857776C59.2812 0.857776 59.6363 1.00031 59.8962 1.28537C60.1734 1.55262 60.312 1.92677 60.312 2.40782C60.312 2.88887 60.1734 3.27192 59.8962 3.55699C59.6363 3.82424 59.2812 3.95786 58.8307 3.95786Z" fill="#232F3E"/>
<path d="M69.5229 19.6988C68.7779 20.0195 67.9896 20.1799 67.1579 20.1799C66.0838 20.1799 65.2868 19.877 64.767 19.2712C64.2646 18.6655 64.0133 17.7301 64.0133 16.4651V8.5011H62.1682V6.84415L64.1173 6.52345L64.4811 2.67507H66.4562V6.47H69.4709V8.5011H66.4562V16.278C66.4562 16.9551 66.5602 17.4361 66.7681 17.7212C66.9933 17.9884 67.3832 18.1221 67.9376 18.1221C68.4747 18.1221 69.0031 18.033 69.5229 17.8548V19.6988Z" fill="#232F3E"/>
<path d="M78.8614 20.0195V10.9865C78.8614 9.97097 78.7228 9.24939 78.4456 8.8218C78.1857 8.3942 77.7613 8.1804 77.1722 8.1804C76.2886 8.1804 75.3443 8.53673 74.3395 9.24939V20.0195H71.8965V0.243103H74.3395V7.61918C75.6215 6.62145 76.9123 6.12258 78.2117 6.12258C79.2166 6.12258 79.9789 6.47001 80.4987 7.16485C81.0358 7.84188 81.3043 8.8218 81.3043 10.1046V20.0195H78.8614Z" fill="#232F3E"/>
</svg>
