<svg width="41" height="16" viewBox="0 0 41 16" fill="none" xmlns="http://www.w3.org/2000/svg">
<path d="M18.8831 7.66848V12.3172H17.3978V0.837524H21.3354C22.3333 0.837524 23.1843 1.16793 23.8805 1.82874C24.5922 2.48956 24.948 3.29636 24.948 4.24916C24.948 5.22501 24.5922 6.03181 23.8805 6.68494C23.192 7.33807 22.341 7.66079 21.3354 7.66079H18.8831V7.66848ZM18.8831 2.25136V6.25464H21.3663C21.9543 6.25464 22.4494 6.05486 22.8361 5.66299C23.2307 5.27111 23.4318 4.79471 23.4318 4.25684C23.4318 3.72665 23.2307 3.25794 22.8361 2.86606C22.4494 2.45882 21.962 2.25904 21.3663 2.25904H18.8831V2.25136Z" fill="white"/>
<path d="M28.8314 4.20312C29.9299 4.20312 30.7963 4.49511 31.4306 5.07908C32.065 5.66306 32.3821 6.46218 32.3821 7.47645V12.3173H30.9665V11.2262H30.9046C30.2935 12.1252 29.4734 12.5708 28.4523 12.5708C27.5782 12.5708 26.851 12.3173 26.2631 11.8025C25.6751 11.2876 25.3812 10.6499 25.3812 9.8815C25.3812 9.06701 25.6906 8.42156 26.3095 7.94516C26.9283 7.46108 27.7561 7.22288 28.785 7.22288C29.6668 7.22288 30.394 7.38424 30.9587 7.70696V7.36887C30.9587 6.85405 30.7576 6.42376 30.3476 6.06262C29.9376 5.70148 29.458 5.52475 28.9087 5.52475C28.081 5.52475 27.4234 5.87052 26.9438 6.56975L25.6364 5.75526C26.3559 4.71794 27.4234 4.20312 28.8314 4.20312ZM26.9129 9.90455C26.9129 10.2887 27.0753 10.6115 27.408 10.865C27.7329 11.1186 28.1197 11.2492 28.5606 11.2492C29.1872 11.2492 29.7442 11.0187 30.2316 10.5577C30.7189 10.0966 30.9665 9.55877 30.9665 8.93638C30.5023 8.57524 29.8602 8.39083 29.0325 8.39083C28.4291 8.39083 27.9263 8.53682 27.524 8.82112C27.114 9.12079 26.9129 9.48193 26.9129 9.90455Z" fill="white"/>
<path d="M40.4585 4.45667L35.5076 15.7673H33.9759L35.817 11.8101L32.5525 4.45667H34.1693L36.521 10.0966H36.5519L38.8417 4.45667H40.4585Z" fill="white"/>
<path d="M12.9753 6.73103C12.9753 6.25002 12.932 5.78976 12.8515 5.34717H6.6257V7.88284L10.2113 7.88361C10.0658 8.7273 9.59783 9.44651 8.88071 9.92598V11.5711H11.015C12.2613 10.4254 12.9753 8.73191 12.9753 6.73103Z" fill="#4285F4"/>
<path d="M8.88158 9.92601C8.28746 10.324 7.52239 10.5569 6.62734 10.5569C4.89838 10.5569 3.43165 9.39967 2.90639 7.83984H0.704758V9.53644C1.79552 11.6864 4.03737 13.1617 6.62734 13.1617C8.41743 13.1617 9.92128 12.5769 11.0159 11.5704L8.88158 9.92601Z" fill="#34A853"/>
<path d="M2.69905 6.58122C2.69905 6.14324 2.77254 5.71987 2.90637 5.32184V3.62524H0.704737C0.253736 4.51427 0 5.51778 0 6.58122C0 7.64467 0.254509 8.64818 0.704737 9.5372L2.90637 7.84061C2.77254 7.44259 2.69905 7.0192 2.69905 6.58122Z" fill="#FABB05"/>
<path d="M6.62734 2.60483C7.60438 2.60483 8.47931 2.93908 9.17013 3.5922L11.0615 1.71504C9.91277 0.65236 8.4151 0 6.62734 0C4.03815 0 1.79552 1.4753 0.704758 3.62524L2.90639 5.32184C3.43165 3.76202 4.89838 2.60483 6.62734 2.60483Z" fill="#E94235"/>
</svg>
