<svg width="33" height="36" viewBox="0 0 33 36" fill="none" xmlns="http://www.w3.org/2000/svg">
<path fill-rule="evenodd" clip-rule="evenodd" d="M4.54083 0.671925C2.67706 1.10119 0.943521 2.74724 0.305139 4.69407C-0.012081 5.66122 -0.126932 29.5865 0.179775 30.7894C0.759023 33.0604 2.68902 34.9059 4.94136 35.3428C6.59658 35.6637 27.9966 35.4481 28.8661 35.1017C30.8418 34.3146 32.2656 32.6768 32.7948 30.5826C33.1095 29.3371 33.0438 6.00046 32.7228 5.01167C32.1043 3.10647 30.7575 1.64679 28.8953 0.863259L28.1068 0.531595L16.74 0.505954C7.44982 0.484863 5.22113 0.515191 4.54083 0.671925ZM18.1888 6.29008C19.0904 6.84161 21.2055 8.12292 22.8891 9.13762C24.5726 10.1522 25.9031 11.0288 25.8458 11.0857C25.4056 11.522 16.4152 16.8712 16.2403 16.8008C15.9295 16.6757 7.24232 11.3417 7.05138 11.1588C6.92852 11.041 7.69897 10.5179 10.2709 8.97206C12.1305 7.85453 14.2432 6.57143 14.966 6.1208C16.5774 5.11616 16.2405 5.09852 18.1888 6.29008ZM26.8942 17.935C26.8599 24.0681 26.8712 23.9464 26.268 24.6856C25.8797 25.1616 18.5248 29.7606 17.4785 30.1817C17.2802 30.2615 17.2655 29.7967 17.297 24.4292L17.3313 18.5898L22.062 15.5989C24.6639 13.9538 26.8223 12.6046 26.8584 12.6005C26.8946 12.5965 26.9107 14.997 26.8942 17.935ZM10.0382 15.178C11.7366 16.2375 13.6473 17.4386 14.2841 17.847L15.4419 18.5898L15.4312 24.3019C15.4253 27.4436 15.3963 30.0392 15.367 30.0699C15.3188 30.1205 13.8666 29.2725 8.60673 26.1226C7.25126 25.3108 6.76807 24.9443 6.5042 24.5274L6.16162 23.9864L6.12456 18.3448L6.08737 12.7032L6.51879 12.9774C6.75598 13.1282 8.33971 14.1185 10.0382 15.178Z" fill="#2563EB"/>
</svg>
