<svg width="74" height="18" viewBox="0 0 74 18" fill="none" xmlns="http://www.w3.org/2000/svg">
<path d="M27.3429 3.99341H23.2962C23.0192 3.99341 22.7837 4.19459 22.7405 4.46796L21.1039 14.8448C21.0713 15.0495 21.2299 15.2342 21.4376 15.2342H23.3695C23.6464 15.2342 23.8819 15.033 23.9251 14.759L24.3666 11.9602C24.4092 11.6863 24.6453 11.4851 24.9216 11.4851H26.2026C28.8683 11.4851 30.4068 10.1951 30.8085 7.63895C30.9896 6.52061 30.8162 5.64192 30.2926 5.02654C29.7174 4.3508 28.6973 3.99341 27.3429 3.99341ZM27.8097 7.78332C27.5884 9.23538 26.479 9.23538 25.4062 9.23538H24.7955L25.2239 6.52357C25.2494 6.35966 25.3914 6.23896 25.5571 6.23896H25.837C26.5677 6.23896 27.2571 6.23896 27.6133 6.65552C27.8257 6.90404 27.8908 7.27327 27.8097 7.78332Z" fill="#253B80"/>
<path d="M39.4398 7.73645H37.5019C37.3368 7.73645 37.1942 7.85716 37.1688 8.02106L37.083 8.56307L36.9475 8.36662C36.528 7.75775 35.5925 7.5542 34.6587 7.5542C32.5173 7.5542 30.6884 9.17608 30.3321 11.4512C30.1469 12.5861 30.4102 13.6713 31.054 14.4281C31.6446 15.124 32.4895 15.4139 33.4948 15.4139C35.2203 15.4139 36.1771 14.3044 36.1771 14.3044L36.0907 14.8429C36.0581 15.0488 36.2167 15.2334 36.4232 15.2334H38.1688C38.4463 15.2334 38.6806 15.0323 38.7244 14.7583L39.7717 8.12579C39.8049 7.92165 39.6469 7.73645 39.4398 7.73645ZM36.7386 11.508C36.5516 12.6151 35.6729 13.3583 34.5522 13.3583C33.9895 13.3583 33.5398 13.1778 33.2511 12.8358C32.9647 12.4962 32.8558 12.0127 32.9469 11.4743C33.1215 10.3767 34.015 9.60921 35.1185 9.60921C35.6688 9.60921 36.1161 9.79205 36.4108 10.137C36.7061 10.4855 36.8232 10.9719 36.7386 11.508Z" fill="#253B80"/>
<path d="M49.7598 7.73657H47.8125C47.6267 7.73657 47.4521 7.82888 47.3468 7.98332L44.661 11.9395L43.5226 8.13775C43.451 7.89989 43.2314 7.73657 42.9829 7.73657H41.0693C40.8368 7.73657 40.6752 7.96379 40.7492 8.18272L42.8942 14.4774L40.8776 17.3241C40.719 17.5483 40.8788 17.8566 41.1527 17.8566H43.0977C43.2823 17.8566 43.4551 17.7667 43.5598 17.6152L50.0367 8.26615C50.1917 8.04249 50.0326 7.73657 49.7598 7.73657Z" fill="#253B80"/>
<path d="M56.2083 3.99341H52.161C51.8847 3.99341 51.6492 4.19459 51.606 4.46796L49.9693 14.8448C49.9368 15.0495 50.0954 15.2342 50.3019 15.2342H52.3788C52.5717 15.2342 52.7368 15.0933 52.767 14.9016L53.2314 11.9602C53.274 11.6863 53.5101 11.4851 53.7865 11.4851H55.0669C57.7332 11.4851 59.271 10.1951 59.6734 7.63895C59.8551 6.52061 59.6805 5.64192 59.1568 5.02654C58.5823 4.3508 57.5628 3.99341 56.2083 3.99341ZM56.6752 7.78332C56.4545 9.23538 55.345 9.23538 54.2717 9.23538H53.6616L54.0906 6.52357C54.1161 6.35966 54.2569 6.23896 54.4232 6.23896H54.703C55.4332 6.23896 56.1231 6.23896 56.4794 6.65552C56.6918 6.90404 56.7563 7.27327 56.6752 7.78332Z" fill="#179BD7"/>
<path d="M68.3024 7.73645H66.3657C66.1994 7.73645 66.058 7.85716 66.0331 8.02106L65.9473 8.56307L65.8112 8.36662C65.3917 7.75775 64.4568 7.5542 63.5231 7.5542C61.3817 7.5542 59.5533 9.17608 59.1971 11.4512C59.0125 12.5861 59.2746 13.6713 59.9184 14.4281C60.5101 15.124 61.3539 15.4139 62.3592 15.4139C64.0846 15.4139 65.0414 14.3044 65.0414 14.3044L64.955 14.8429C64.9225 15.0488 65.0811 15.2334 65.2888 15.2334H67.0337C67.3101 15.2334 67.5456 15.0323 67.5887 14.7583L68.6367 8.12579C68.6686 7.92165 68.51 7.73645 68.3024 7.73645ZM65.6012 11.508C65.4154 12.6151 64.5355 13.3583 63.4148 13.3583C62.8533 13.3583 62.4024 13.1778 62.1136 12.8358C61.8272 12.4962 61.7196 12.0127 61.8095 11.4743C61.9852 10.3767 62.8775 9.60921 63.9811 9.60921C64.5314 9.60921 64.9787 9.79205 65.2734 10.137C65.5698 10.4855 65.687 10.9719 65.6012 11.508Z" fill="#179BD7"/>
<path d="M70.5871 4.278L68.9262 14.8448C68.8936 15.0495 69.0522 15.2341 69.2587 15.2341H70.9285C71.2061 15.2341 71.4416 15.033 71.4842 14.759L73.122 4.38274C73.1546 4.178 72.996 3.9928 72.7895 3.9928H70.9197C70.7546 3.99339 70.6126 4.1141 70.5871 4.278Z" fill="#179BD7"/>
<path d="M4.29828 17.2508L4.60775 15.2851L3.9184 15.2692H0.626709L2.91427 0.764536C2.92137 0.720749 2.94444 0.679921 2.97817 0.650927C3.0119 0.621933 3.0551 0.605957 3.10007 0.605957H8.65032C10.4929 0.605957 11.7645 0.989386 12.4284 1.74619C12.7396 2.10121 12.9379 2.47222 13.0337 2.8805C13.1343 3.3089 13.1361 3.82073 13.0379 4.44498L13.0308 4.49055V4.89054L13.342 5.06687C13.6041 5.20593 13.8124 5.3651 13.9722 5.54734C14.2385 5.85089 14.4106 6.23669 14.4834 6.69408C14.5586 7.16449 14.5337 7.72425 14.4106 8.35798C14.2686 9.08696 14.039 9.72187 13.729 10.2414C13.4438 10.7201 13.0805 11.1171 12.6491 11.4248C12.2373 11.7171 11.7479 11.939 11.1947 12.081C10.6586 12.2207 10.0474 12.2911 9.37695 12.2911H8.945C8.63612 12.2911 8.33612 12.4023 8.10062 12.6017C7.86453 12.8053 7.70832 13.0834 7.66039 13.3875L7.62785 13.5644L7.0811 17.0289L7.05625 17.1561C7.04974 17.1964 7.0385 17.2165 7.02193 17.2301C7.00714 17.2425 6.98584 17.2508 6.96513 17.2508H4.29828Z" fill="#253B80"/>
<path d="M13.6375 4.53662C13.6209 4.64254 13.602 4.75082 13.5807 4.86206C12.8488 8.62003 10.3446 9.91824 7.14643 9.91824H5.51803C5.12691 9.91824 4.79733 10.2023 4.73638 10.5881L3.90266 15.8756L3.66657 17.3744C3.62692 17.6277 3.82219 17.8561 4.07781 17.8561H6.96595C7.30796 17.8561 7.59849 17.6075 7.65234 17.2703L7.68074 17.1235L8.22452 13.6727L8.25944 13.4833C8.31269 13.1448 8.60381 12.8963 8.94582 12.8963H9.37777C12.176 12.8963 14.3665 11.7602 15.0067 8.47269C15.2742 7.09933 15.1357 5.95259 14.428 5.14608C14.2138 4.90289 13.9482 4.70112 13.6375 4.53662Z" fill="#179BD7"/>
<path d="M12.8715 4.23135C12.7597 4.1988 12.6443 4.16922 12.526 4.14259C12.407 4.11656 12.2851 4.09348 12.1597 4.07336C11.7207 4.00236 11.2396 3.96863 10.7242 3.96863H6.37394C6.26684 3.96863 6.16507 3.99289 6.07394 4.03667C5.87335 4.13312 5.72424 4.32306 5.68815 4.55561L4.76271 10.4171L4.73608 10.5881C4.79703 10.2023 5.12661 9.91829 5.51774 9.91829H7.14613C10.3443 9.91829 12.8485 8.61948 13.5804 4.86211C13.6023 4.75087 13.6206 4.64259 13.6372 4.53667C13.452 4.43845 13.2514 4.35442 13.0354 4.28283C12.9822 4.26508 12.9272 4.24792 12.8715 4.23135Z" fill="#222D65"/>
<path d="M5.68871 4.55559C5.72481 4.32305 5.87392 4.13311 6.07451 4.03725C6.16622 3.99346 6.26741 3.9692 6.37451 3.9692H10.7248C11.2402 3.9692 11.7212 4.00293 12.1603 4.07394C12.2857 4.09406 12.4076 4.11713 12.5265 4.14317C12.6449 4.16979 12.7603 4.19938 12.8721 4.23192C12.9277 4.24849 12.9827 4.26565 13.0366 4.28281C13.2526 4.35441 13.4532 4.43902 13.6384 4.53666C13.8561 3.14791 13.6366 2.20235 12.8857 1.34615C12.0579 0.403548 10.5638 0 8.65201 0H3.10175C2.71122 0 2.37808 0.284022 2.31773 0.67041L0.00591051 15.3242C-0.0396513 15.6141 0.184016 15.8756 0.476322 15.8756H3.90293L4.76328 10.4171L5.68871 4.55559Z" fill="#253B80"/>
</svg>
