<svg width="54" height="11" viewBox="1.3 12.2 53.5 10.5" fill="none" xmlns="http://www.w3.org/2000/svg">
<path d="M7.00074 12.8958C7.19928 13.3179 7.32604 13.8303 7.32604 14.5827C7.32604 15.9571 6.36886 17.9731 5.59342 19.2557L4.76338 12.4737L1.33594 12.804L2.90591 22.3349H6.82015C8.53407 20.0439 10.6454 16.7815 10.6454 14.2699C10.6454 13.4825 10.4828 12.8592 10.122 12.2539L7.00074 12.8954V12.8958ZM16.4401 12.2905C12.8679 12.2905 11.1353 15.4436 11.1353 18.4127C11.1353 20.7037 12.2005 22.5364 15.1767 22.5364C16.3499 22.5364 17.5587 22.2797 18.3342 21.8949L18.7488 19.0363C17.6481 19.6043 16.8009 19.8237 15.9166 19.8237C15.1041 19.8237 14.4917 19.3849 14.4917 18.266C16.3324 18.2477 19.5067 17.4786 19.5067 14.967C19.5067 13.4093 18.4071 12.2905 16.4404 12.2905H16.4401ZM14.5639 16.4512C14.6544 15.3518 15.4833 14.5823 16.1148 14.5823C16.4759 14.5823 16.7822 14.8017 16.7822 15.2417C16.7822 16.1578 15.1942 16.4508 14.5635 16.4508L14.5639 16.4512ZM27.1053 12.2909C25.8251 12.2909 24.9226 12.7865 24.2372 13.2444L24.2006 12.4558H21.2958L19.7625 22.3353H23.1185L24.1826 15.4074C24.4713 15.2603 24.9046 15.0588 25.3368 15.0588C25.6625 15.0588 25.9332 15.1685 25.9332 15.6085C25.9332 15.7918 25.8786 16.1221 25.8607 16.2862L24.9226 22.3353H28.2599L29.2885 15.7365C29.3431 15.3891 29.3977 14.8573 29.3977 14.4908C29.3977 13.1705 28.8013 12.2905 27.1053 12.2909ZM42.4084 12.2909C41.1641 12.2909 40.2615 12.6764 39.3055 13.3724C38.9618 12.7491 38.2769 12.2909 37.2304 12.2913C36.0216 12.2913 35.1201 12.7869 34.4524 13.281L34.3623 12.4562H31.493L29.9597 22.3357H33.3146L34.3794 15.4078C34.6681 15.2607 35.1007 15.0592 35.5336 15.0592C35.8578 15.0592 36.1289 15.1689 36.1289 15.6646C36.1289 15.7922 36.093 15.9937 36.0754 16.159L35.1194 22.3357H38.4567L39.5208 15.4078C39.8285 15.2425 40.2428 15.0592 40.6574 15.0592C40.9827 15.0592 41.2538 15.1689 41.2538 15.6646C41.2538 15.7922 41.2168 15.9937 41.1992 16.159L40.2432 22.3357H43.5813L44.6087 15.7369C44.6633 15.3895 44.7179 14.8577 44.7179 14.4912C44.7179 13.1709 44.1219 12.2909 42.4084 12.2909ZM50.9455 12.2909C47.2107 12.2909 45.5873 15.2063 45.5873 18.3216C45.5873 20.6858 46.5253 22.5742 49.3576 22.5742C53.1825 22.5742 54.7883 19.3853 54.7883 16.3057C54.7883 13.9777 53.7597 12.2909 50.9451 12.2909H50.9455ZM49.8264 19.9529C49.2316 19.9529 48.9788 19.3849 48.9788 18.4675C48.9788 17.258 49.2491 14.8939 50.5664 14.8939C51.1612 14.8939 51.3597 15.4436 51.3597 16.2504C51.3597 17.4599 51.0711 19.9532 49.826 19.9532L49.8264 19.9529Z" fill="white"/>
</svg>
